<svg width="52" height="55" viewBox="0 0 52 55" fill="none" xmlns="http://www.w3.org/2000/svg">
<rect x="5.45972" y="19.8361" width="41.1401" height="28.3907" fill="white" stroke="black"/>
<path d="M9.85991 31.9321L7.8999 47.1522H44.65C43.9967 43.6533 42.69 36.4456 42.69 33.5066C42.69 30.5675 41.3833 29.1329 40.73 28.7831L31.42 23.5347L27.5 27.2086H25.05L20.6399 23.5347C20.4868 23.6113 20.3229 23.6934 20.1499 23.7804C17.5562 25.0847 12.9224 27.471 11.8199 28.2582C10.6439 29.098 10.0232 31.0573 9.85991 31.9321Z" fill="#4572AB" stroke="#4572AB"/>
<path d="M25.0499 28.1729L20.1498 24.0596C19.6599 30.8825 23.9065 41.8429 25.5399 46.6275L27.0099 45.6022C28.9699 41.5012 32.8899 25.1093 30.9299 24.0596L27.4999 28.1729H25.0499Z" fill="white" stroke="white"/>
<path d="M27.4999 27.7335H23.5798L23.0898 29.308L24.0698 30.8825L23.0898 39.8046L24.0698 43.4785L24.3982 46.9294H25.8257L26.5199 45.5778L28.9699 40.8543L27.0099 30.8825L27.9899 29.308L27.4999 27.7335Z" fill="#00EFFE" fill-opacity="0.8" stroke="#00EFFE" stroke-opacity="0.8"/>
<path d="M16.72 28.7831C17.21 26.1589 18.19 24.0596 19.66 23.5347C19.1264 27.7334 22.11 40.3294 24.56 47.1522H23.09C19.66 42.9536 17.7204 36.1307 16.72 30.8824L18.19 29.8327L16.72 28.7831Z" fill="#112340" stroke="#112340"/>
<path d="M34.8501 28.7831C34.8501 26.6837 32.5089 24.0596 31.4201 23.5347C32.0299 27.7334 29.9501 41.3791 26.0301 47.1522H27.9901L29.9501 45.5777C33.1624 41.3791 33.8156 36.6556 34.959 31.4072L33.8701 29.8327L34.8501 28.7831Z" fill="#112340" stroke="#112340"/>
<path d="M21.1297 19.3361L20.3076 23.2475L23.5797 27.2086H27.5138L30.4315 23.2475L29.9498 19.3361C29.4598 21.9603 27.5386 24.0596 25.5397 24.0596C23.5409 24.0596 21.7831 21.0856 21.1297 19.3361Z" fill="#F2C1A1" stroke="#F2C1A1"/>
<path d="M20.1499 4.64081L19.1699 10.414C21.1299 8.83948 23.0899 8.83948 25.5399 10.414C27.0099 9.36431 29.95 8.83948 31.42 9.36431L30.44 4.64081L25.5399 6.74014L20.1499 4.64081Z" fill="#25313B" stroke="#25313B"/>
<path d="M0.778671 52.3006L4.99567 48.8268H46.9886L51.6961 52.3006H0.778671Z" fill="#FAFAFA" stroke="black" stroke-width="0.2"/>
<path d="M0.5 52.4006H52V54.4999H0.5V52.4006Z" fill="#C4C4C4"/>
<path d="M22.0831 21.6061C23.2591 23.2856 25.1865 23.7055 26.0031 23.7055C26.78 23.7943 28.9432 21.6061 29.4332 21.0813C29.8252 20.6614 30.9032 18.1072 31.3932 16.8826L31.8832 16.3578C33.0592 13.8386 32.3732 12.8589 31.8832 12.684C32.2752 12.2641 32.0465 11.1095 31.8832 10.5846C29.5312 9.32506 26.6565 10.0598 25.5132 10.5846C23.0632 9.53497 20.6131 10.0598 19.6331 10.5846C18.8491 11.0045 18.9798 12.1591 19.1431 12.684C17.9671 15.2032 19.3064 16.5328 20.1231 16.8826C20.2865 17.7574 20.9071 19.9267 22.0831 21.6061Z" fill="#FED7BA" stroke="#FED7BA"/>
<path d="M23.804 19.6627C24.4223 20.6304 26.03 21.9852 27.514 19.6627" stroke="#D8AA85" stroke-linecap="round"/>
<ellipse rx="1.36255" ry="1.08232" transform="matrix(0.998255 0.0590498 -0.114431 0.993431 23.062 14.5975)" fill="white"/>
<ellipse cx="23.0623" cy="14.4322" rx="0.742002" ry="0.829457" fill="#342417"/>
<ellipse rx="0.222601" ry="0.248837" transform="matrix(1 0 0 -1 22.5424 14.681)" fill="white"/>
<ellipse rx="1.36255" ry="1.08232" transform="matrix(0.998255 0.0590498 -0.114431 0.993431 28.2561 14.5975)" fill="white"/>
<ellipse cx="28.2562" cy="14.4322" rx="0.742002" ry="0.829457" fill="#342417"/>
<ellipse rx="0.222601" ry="0.248837" transform="matrix(1 0 0 -1 27.7368 14.681)" fill="white"/>
<ellipse cx="21.9489" cy="19.248" rx="1.113" ry="0.829457" fill="#E68B5D"/>
<ellipse cx="29.3691" cy="19.248" rx="1.113" ry="0.829457" fill="#F68F6E"/>
<path d="M27.1431 12.8406C27.5141 12.2877 29.3691 12.1977 29.7401 12.8407" stroke="#C18651" stroke-width="0.6" stroke-linecap="round"/>
<path d="M23.804 13.0272C23.5257 12.5935 22.32 12.1976 21.5779 13.0271" stroke="#C18651" stroke-width="0.6" stroke-linecap="round"/>
<path d="M25.6591 1L16.384 4.73256L25.6591 7.63566L34.9341 4.73256L25.6591 1Z" fill="#474F59" stroke="#474F59"/>
<path d="M37.3455 38V35.9H39.8577V38L38.6016 37.3L37.3455 38Z" fill="#ED2125" stroke="#ED2125"/>
<ellipse cx="38.6016" cy="33.8" rx="2.5122" ry="2.8" fill="url(#paint0_angular_15220:167)"/>
<ellipse cx="38.6016" cy="33.8" rx="2.5122" ry="2.8" fill="#FE9817"/>
<ellipse cx="38.6016" cy="33.8" rx="1.2561" ry="1.4" fill="white"/>
<path d="M38.6016 32.4L38.8836 33.3674L39.7962 33.3674L39.0579 33.9653L39.3399 34.9326L38.6016 34.3348L37.8632 34.9326L38.1453 33.9653L37.4069 33.3674L38.3195 33.3674L38.6016 32.4Z" fill="#FFA61C"/>
<defs>
<radialGradient id="paint0_angular_15220:167" cx="0" cy="0" r="1" gradientUnits="userSpaceOnUse" gradientTransform="translate(38.6016 33.8) rotate(90) scale(2.8 2.51219)">
<stop offset="0.131776" stop-color="#FEAD32"/>
<stop offset="1" stop-color="#FBAC34" stop-opacity="0"/>
</radialGradient>
</defs>
</svg>
